<svg xmlns="http://www.w3.org/2000/svg" viewBox="47 4438 24 29.333">
  <defs>
    <style>
      .cls-1 {
        fill: #fff;
      }
    </style>
  </defs>
  <path id="ic_content_paste_24px" class="cls-1" d="M24.333,2.667H18.76a3.984,3.984,0,0,0-7.52,0H5.667A2.675,2.675,0,0,0,3,5.333V26.667a2.675,2.675,0,0,0,2.667,2.667H24.333A2.675,2.675,0,0,0,27,26.667V5.333A2.675,2.675,0,0,0,24.333,2.667ZM15,2.667A1.333,1.333,0,1,1,13.667,4,1.337,1.337,0,0,1,15,2.667Zm9.333,24H5.667V5.333H8.333v4H21.667v-4h2.667Z" transform="translate(44 4438)"/>
</svg>
