<svg xmlns="http://www.w3.org/2000/svg" viewBox="48 4498 22.4 22.4">
  <defs>
    <style>
      .cls-1 {
        fill: #fff;
      }
    </style>
  </defs>
  <path id="ic_phone_24px" class="cls-1" d="M7.5,12.694a18.852,18.852,0,0,0,8.2,8.2l2.738-2.738a1.237,1.237,0,0,1,1.269-.3,14.2,14.2,0,0,0,4.443.709A1.248,1.248,0,0,1,25.4,19.812v4.343A1.248,1.248,0,0,1,24.156,25.4,21.154,21.154,0,0,1,3,4.244,1.248,1.248,0,0,1,4.244,3H8.6A1.248,1.248,0,0,1,9.844,4.244a14.137,14.137,0,0,0,.709,4.443,1.249,1.249,0,0,1-.311,1.269Z" transform="translate(45 4495)"/>
</svg>
